<mxfile host="app.diagrams.net" modified="2023-04-22T00:20:39.143Z" agent="Mozilla/5.0 (Macintosh; Intel Mac OS X 10_15_7) AppleWebKit/537.36 (KHTML, like Gecko) Chrome/112.0.0.0 Safari/537.36" etag="pT3wu-Dh71o4PXsKMjxn" version="21.2.0" type="github">
  <diagram id="pm73N6I4ifg4NlOD--yJ" name="第 1 页">
    <mxGraphModel dx="4931" dy="2197" grid="0" gridSize="10" guides="1" tooltips="1" connect="1" arrows="1" fold="1" page="0" pageScale="1" pageWidth="900" pageHeight="1600" math="0" shadow="0">
      <root>
        <mxCell id="0" />
        <mxCell id="1" parent="0" />
        <mxCell id="qANSEEMcXUb1CBoxWqj7-3" value="" style="rounded=1;whiteSpace=wrap;html=1;arcSize=3;fillColor=#f5f5f5;strokeColor=#666666;fontColor=#333333;" parent="1" vertex="1">
          <mxGeometry x="-892.37" y="148" width="880" height="1197" as="geometry" />
        </mxCell>
        <mxCell id="qANSEEMcXUb1CBoxWqj7-4" value="" style="rounded=1;whiteSpace=wrap;html=1;arcSize=2;strokeWidth=5;fillColor=#f5f5f5;strokeColor=#666666;fontColor=#333333;" parent="1" vertex="1">
          <mxGeometry x="-883" y="170" width="861.25" height="569" as="geometry" />
        </mxCell>
        <mxCell id="JUuA0cJzhno2IH6DJp2Z-5" value="" style="triangle;whiteSpace=wrap;html=1;strokeColor=#129f4b;strokeWidth=2;fontFamily=Helvetica;fontSize=43;fontColor=#FFFFFF;fillColor=#129f4b;arcSize=3;rounded=1;" parent="1" vertex="1">
          <mxGeometry x="-844" y="189.24" width="35.25" height="47" as="geometry" />
        </mxCell>
        <mxCell id="JUuA0cJzhno2IH6DJp2Z-6" value="" style="shape=image;verticalLabelPosition=bottom;labelBackgroundColor=default;verticalAlign=top;aspect=fixed;imageAspect=0;image=data:image/svg+xml,PHN2ZyB4bWxuczp4bGluaz0iaHR0cDovL3d3dy53My5vcmcvMTk5OS94bGluayIgeG1sbnM9Imh0dHA6Ly93d3cudzMub3JnLzIwMDAvc3ZnIiBoZWlnaHQ9IjEyOCIgd2lkdGg9IjEyOCIgdmVyc2lvbj0iMS4xIiB2aWV3Qm94PSIwIDAgMTAyNCAxMDI0IiBjbGFzcz0iaWNvbiI+PHBhdGggZmlsbD0iIzEyOWY0YiIgZD0iTTk0MCA1MTJINzkyVjQxMmM3Ni44IDAgMTM5LTYyLjIgMTM5LTEzOSAwLTQuNC0zLjYtOC04LThoLTYwYy00LjQgMC04IDMuNi04IDggMCAzNC44LTI4LjIgNjMtNjMgNjNIMjMyYy0zNC44IDAtNjMtMjguMi02My02MyAwLTQuNC0zLjYtOC04LThoLTYwYy00LjQgMC04IDMuNi04IDggMCA3Ni44IDYyLjIgMTM5IDEzOSAxMzl2MTAwSDg0Yy00LjQgMC04IDMuNi04IDh2NTZjMCA0LjQgMy42IDggOCA4aDE0OHY5NmMwIDYuNSAwLjIgMTMgMC43IDE5LjNDMTY0LjEgNzI4LjYgMTE2IDc5Ni43IDExNiA4NzZjMCA0LjQgMy42IDggOCA4aDU2YzQuNCAwIDgtMy42IDgtOCAwLTQ0LjIgMjMuOS04Mi45IDU5LjYtMTAzLjcgNiAxNy4yIDEzLjYgMzMuNiAyMi43IDQ5IDI0LjMgNDEuNSA1OSA3Ni4yIDEwMC41IDEwMC41IDI4LjkgMTYuOSA2MSAyOC44IDk1LjMgMzQuNSA0LjQgMCA4LTMuNiA4LThWNDg0YzAtNC40IDMuNi04IDgtOGg2MGM0LjQgMCA4IDMuNiA4IDh2NDY0LjJjMCA0LjQgMy42IDggOCA4IDM0LjMtNS43IDY2LjQtMTcuNiA5NS4zLTM0LjUgNDEuNS0yNC4zIDc2LjItNTkgMTAwLjUtMTAwLjUgOS4xLTE1LjUgMTYuNy0zMS45IDIyLjctNDlDODEyLjEgNzkzLjEgODM2IDgzMS44IDgzNiA4NzZjMCA0LjQgMy42IDggOCA4aDU2YzQuNCAwIDgtMy42IDgtOCAwLTc5LjMtNDguMS0xNDcuNC0xMTYuNy0xNzYuNyAwLjQtNi40IDAuNy0xMi44IDAuNy0xOS4zdi05NmgxNDhjNC40IDAgOC0zLjYgOC04di01NmMwLTQuNC0zLjYtOC04LTh6Ii8+PHBhdGggZmlsbD0iIzEyOWY0YiIgZD0iTTMwNCAyODBoNDE2YzQuNCAwIDgtMy42IDgtOCAwLTQwLTguOC03Ni43LTI1LjktMTA4LjEtMTcuMi0zMS41LTQyLjUtNTYuOC03NC03NEM1OTYuNyA3Mi44IDU2MCA2NCA1MjAgNjRoLTE2Yy00MCAwLTc2LjcgOC44LTEwOC4xIDI1LjktMzEuNSAxNy4yLTU2LjggNDIuNS03NCA3NEMzMDQuOCAxOTUuMyAyOTYgMjMyIDI5NiAyNzJjMCA0LjQgMy42IDggOCA4eiIvPjwvc3ZnPg==;" parent="1" vertex="1">
          <mxGeometry x="-785" y="181.47000000000003" width="63.5" height="63.5" as="geometry" />
        </mxCell>
        <mxCell id="JUuA0cJzhno2IH6DJp2Z-7" value="" style="whiteSpace=wrap;html=1;aspect=fixed;strokeColor=#d64a4b;strokeWidth=2;fontFamily=Helvetica;fontSize=43;fontColor=#FFFFFF;fillColor=#d64a4b;" parent="1" vertex="1">
          <mxGeometry x="-698" y="190.98000000000002" width="44" height="44" as="geometry" />
        </mxCell>
        <mxCell id="JUuA0cJzhno2IH6DJp2Z-1" value="&lt;font color=&quot;#453e46&quot; face=&quot;黑体&quot; style=&quot;font-size: 54px;&quot;&gt;小白debug&lt;/font&gt;" style="text;html=1;strokeColor=none;fillColor=none;align=center;verticalAlign=middle;whiteSpace=wrap;rounded=0;" parent="1" vertex="1">
          <mxGeometry x="-319" y="195.72000000000003" width="272" height="30" as="geometry" />
        </mxCell>
        <mxCell id="4wF40bFPKQ6E5x27yC6A-2" value="" style="ellipse;whiteSpace=wrap;html=1;strokeColor=none;fontColor=#d4d4d4;fillColor=#129F4B;rotation=90;" parent="1" vertex="1">
          <mxGeometry x="-779.5" y="195.72000000000003" width="52.5" height="38" as="geometry" />
        </mxCell>
        <mxCell id="4wF40bFPKQ6E5x27yC6A-3" value="" style="rounded=1;whiteSpace=wrap;html=1;strokeColor=none;fontColor=#333333;fillColor=#f5f5f5;" parent="1" vertex="1">
          <mxGeometry x="-761.8600000000001" y="206.47000000000003" width="17.23" height="7" as="geometry" />
        </mxCell>
        <mxCell id="4wF40bFPKQ6E5x27yC6A-4" value="" style="rounded=1;whiteSpace=wrap;html=1;strokeColor=none;fontColor=#333333;fillColor=#f5f5f5;" parent="1" vertex="1">
          <mxGeometry x="-761.8600000000001" y="218.47000000000003" width="17.23" height="7" as="geometry" />
        </mxCell>
        <mxCell id="4wF40bFPKQ6E5x27yC6A-5" value="" style="rounded=1;whiteSpace=wrap;html=1;strokeColor=none;fontColor=#d4d4d4;fillColor=#129F4B;rotation=45;" parent="1" vertex="1">
          <mxGeometry x="-767.8600000000001" y="186.11" width="17.23" height="7" as="geometry" />
        </mxCell>
        <mxCell id="4wF40bFPKQ6E5x27yC6A-6" value="" style="rounded=1;whiteSpace=wrap;html=1;strokeColor=none;fontColor=#d4d4d4;fillColor=#129F4B;rotation=45;flipH=1;flipV=1;direction=south;" parent="1" vertex="1">
          <mxGeometry x="-750.625" y="180.995" width="7" height="17.23" as="geometry" />
        </mxCell>
        <mxCell id="6X4qxCI0ZVaxh0PWRlIN-3" value="" style="rounded=1;whiteSpace=wrap;html=1;arcSize=0;strokeWidth=5;fillColor=#313335;strokeColor=#666666;fontColor=#333333;" vertex="1" parent="1">
          <mxGeometry x="-882.99" y="254" width="861.25" height="619" as="geometry" />
        </mxCell>
        <mxCell id="6X4qxCI0ZVaxh0PWRlIN-89" value="" style="group" vertex="1" connectable="0" parent="1">
          <mxGeometry x="-712.63" y="952.8100000000001" width="98.88" height="282.9900000000001" as="geometry" />
        </mxCell>
        <mxCell id="6X4qxCI0ZVaxh0PWRlIN-9" value="" style="rounded=1;whiteSpace=wrap;html=1;fillColor=#453e46;rotation=90;container=0;" vertex="1" parent="6X4qxCI0ZVaxh0PWRlIN-89">
          <mxGeometry x="-93.37" y="93.37" width="282.99" height="96.25" as="geometry" />
        </mxCell>
        <mxCell id="6X4qxCI0ZVaxh0PWRlIN-11" value="" style="triangle;whiteSpace=wrap;html=1;flipH=1;fillColor=#118ec3;rotation=90;container=0;" vertex="1" parent="6X4qxCI0ZVaxh0PWRlIN-89">
          <mxGeometry x="30.120000000000005" y="6.239999999999895" width="36" height="64" as="geometry" />
        </mxCell>
        <mxCell id="6X4qxCI0ZVaxh0PWRlIN-88" value="" style="triangle;whiteSpace=wrap;html=1;flipH=1;fillColor=#118ec3;rotation=90;container=0;flipV=0;direction=west;" vertex="1" parent="6X4qxCI0ZVaxh0PWRlIN-89">
          <mxGeometry x="30.120000000000005" y="208.14999999999998" width="36" height="64" as="geometry" />
        </mxCell>
        <mxCell id="6X4qxCI0ZVaxh0PWRlIN-90" value="" style="group;rotation=90;" vertex="1" connectable="0" parent="1">
          <mxGeometry x="-711" y="956.0000000000001" width="96.25" height="282.9900000000001" as="geometry" />
        </mxCell>
        <mxCell id="6X4qxCI0ZVaxh0PWRlIN-91" value="" style="rounded=1;whiteSpace=wrap;html=1;fillColor=#453e46;rotation=180;container=0;" vertex="1" parent="6X4qxCI0ZVaxh0PWRlIN-90">
          <mxGeometry x="-93" y="93" width="282.99" height="96.25" as="geometry" />
        </mxCell>
        <mxCell id="6X4qxCI0ZVaxh0PWRlIN-92" value="" style="triangle;whiteSpace=wrap;html=1;flipH=1;fillColor=#118ec3;rotation=180;container=0;" vertex="1" parent="6X4qxCI0ZVaxh0PWRlIN-90">
          <mxGeometry x="133" y="109" width="36" height="64" as="geometry" />
        </mxCell>
        <mxCell id="6X4qxCI0ZVaxh0PWRlIN-93" value="" style="triangle;whiteSpace=wrap;html=1;flipH=1;fillColor=#118ec3;rotation=180;container=0;flipV=0;direction=west;" vertex="1" parent="6X4qxCI0ZVaxh0PWRlIN-90">
          <mxGeometry x="-69" y="109" width="36" height="64" as="geometry" />
        </mxCell>
        <mxCell id="6X4qxCI0ZVaxh0PWRlIN-94" value="" style="rounded=0;whiteSpace=wrap;html=1;fillColor=#453e46;rotation=-180;strokeColor=none;container=0;" vertex="1" parent="6X4qxCI0ZVaxh0PWRlIN-90">
          <mxGeometry x="-2" y="182.18999999999994" width="95.5" height="15.5" as="geometry" />
        </mxCell>
        <mxCell id="6X4qxCI0ZVaxh0PWRlIN-12" value="" style="ellipse;whiteSpace=wrap;html=1;aspect=fixed;fillColor=#e44037;container=0;" vertex="1" parent="6X4qxCI0ZVaxh0PWRlIN-90">
          <mxGeometry x="2" y="96.74999999999989" width="89.5" height="89.5" as="geometry" />
        </mxCell>
        <mxCell id="6X4qxCI0ZVaxh0PWRlIN-95" value="" style="rounded=0;whiteSpace=wrap;html=1;fillColor=#453e46;rotation=-180;strokeColor=none;container=0;" vertex="1" parent="1">
          <mxGeometry x="-712" y="1035.68" width="95.5" height="15.5" as="geometry" />
        </mxCell>
        <mxCell id="6X4qxCI0ZVaxh0PWRlIN-98" value="" style="ellipse;whiteSpace=wrap;html=1;aspect=fixed;fillColor=#118EC3;container=0;strokeWidth=3;" vertex="1" parent="1">
          <mxGeometry x="-281" y="965.25" width="105" height="105" as="geometry" />
        </mxCell>
        <mxCell id="6X4qxCI0ZVaxh0PWRlIN-97" value="" style="ellipse;whiteSpace=wrap;html=1;aspect=fixed;fillColor=#e44037;container=0;strokeWidth=3;" vertex="1" parent="1">
          <mxGeometry x="-273.25" y="973" width="89.5" height="89.5" as="geometry" />
        </mxCell>
        <mxCell id="6X4qxCI0ZVaxh0PWRlIN-99" value="" style="ellipse;whiteSpace=wrap;html=1;aspect=fixed;fillColor=#118EC3;container=0;strokeWidth=3;" vertex="1" parent="1">
          <mxGeometry x="-186" y="1115" width="105" height="105" as="geometry" />
        </mxCell>
        <mxCell id="6X4qxCI0ZVaxh0PWRlIN-100" value="" style="ellipse;whiteSpace=wrap;html=1;aspect=fixed;fillColor=#e44037;container=0;strokeWidth=3;" vertex="1" parent="1">
          <mxGeometry x="-178.25" y="1122.75" width="89.5" height="89.5" as="geometry" />
        </mxCell>
        <mxCell id="6X4qxCI0ZVaxh0PWRlIN-101" value="" style="ellipse;whiteSpace=wrap;html=1;aspect=fixed;fillColor=#118EC3;container=0;strokeWidth=3;" vertex="1" parent="1">
          <mxGeometry x="-371" y="1115" width="105" height="105" as="geometry" />
        </mxCell>
        <mxCell id="6X4qxCI0ZVaxh0PWRlIN-102" value="" style="ellipse;whiteSpace=wrap;html=1;aspect=fixed;fillColor=#e44037;container=0;strokeWidth=3;" vertex="1" parent="1">
          <mxGeometry x="-363.25" y="1122.75" width="89.5" height="89.5" as="geometry" />
        </mxCell>
        <mxCell id="6X4qxCI0ZVaxh0PWRlIN-103" value="" style="rounded=1;whiteSpace=wrap;html=1;arcSize=50;fillColor=#d4cfd0;" vertex="1" parent="1">
          <mxGeometry x="-595.37" y="1295" width="120" height="20" as="geometry" />
        </mxCell>
        <mxCell id="6X4qxCI0ZVaxh0PWRlIN-104" value="" style="rounded=1;whiteSpace=wrap;html=1;arcSize=50;fillColor=#d4cfd0;" vertex="1" parent="1">
          <mxGeometry x="-429.37" y="1295" width="120" height="20" as="geometry" />
        </mxCell>
      </root>
    </mxGraphModel>
  </diagram>
</mxfile>
